<?xml version="1.0" encoding="UTF-8"?>
<svg width="32px" height="25px" viewBox="0 0 32 25" version="1.1" xmlns="http://www.w3.org/2000/svg" xmlns:xlink="http://www.w3.org/1999/xlink">
    <!-- Generator: Sketch 55.2 (78181) - https://sketchapp.com -->
    <title>envelope</title>
    <desc>Created with Sketch.</desc>
    <g id="Landing-Page-(Portfolio)" stroke="none" stroke-width="1" fill="none" fill-rule="evenodd">
        <g id="landing-page" transform="translate(-80.000000, -827.000000)" fill="#000000">
            <g id="social-media" transform="translate(80.000000, 827.000000)">
                <g id="envelope">
                    <g id="Path">
                        <path d="M3.069125,7.73753102 C3.473625,8.02084367 4.6929375,8.86228288 6.727125,10.2614144 C8.761375,11.6605459 10.31975,12.7378412 11.4023125,13.4933623 C11.52125,13.5761787 11.7739375,13.7562035 12.1605,14.0336849 C12.547125,14.3113524 12.868375,14.535732 13.124,14.7068859 C13.3798125,14.8779777 13.6890625,15.0699132 14.0520625,15.2823821 C14.4149375,15.494665 14.757,15.6543424 15.0781875,15.7600496 C15.3994375,15.8666253 15.6968125,15.9194169 15.970375,15.9194169 L15.9883125,15.9194169 L16.0063125,15.9194169 C16.279875,15.9194169 16.577375,15.8665633 16.898625,15.7600496 C17.2196875,15.6543424 17.5620625,15.4944789 17.924625,15.2823821 C18.287375,15.069665 18.596625,14.8779156 18.8524375,14.7068859 C19.10825,14.535732 19.42925,14.3113524 19.816,14.0336849 C20.2025,13.7559553 20.4555,13.5761787 20.5744375,13.4933623 C21.6686875,12.7378412 24.452625,10.8190447 28.925375,7.73715881 C29.79375,7.13523573 30.51925,6.408933 31.1020625,5.5587469 C31.6853125,4.708933 31.976625,3.81743176 31.976625,2.88473945 C31.976625,2.10533499 31.6939375,1.43815136 31.1288125,0.88325062 C30.56375,0.328225806 29.8945,0.0508684864 29.1215,0.0508684864 L2.8549375,0.0508684864 C1.939,0.0508684864 1.234125,0.357816377 0.7404375,0.971712159 C0.2468125,1.58573201 0,2.35322581 0,3.27413151 C0,4.01799007 0.32725,4.82406948 0.9814375,5.69187345 C1.6355625,6.55973945 2.3316875,7.24168734 3.069125,7.73753102 Z" fill-rule="nonzero"></path>
                        <path d="M30.192,9.63244417 C26.2905,12.2534739 23.328,14.2904467 21.3059375,15.742928 C20.627875,16.2386476 20.0778125,16.6256203 19.655375,16.9029156 C19.2329375,17.180397 18.671125,17.4637717 17.969125,17.7529156 C17.267375,18.0424938 16.613375,18.1868486 16.0065625,18.1868486 L15.988375,18.1868486 L15.9704375,18.1868486 C15.36375,18.1868486 14.709375,18.0424938 14.007625,17.7529156 C13.305875,17.4637717 12.7436875,17.180397 12.321375,16.9029156 C11.8991875,16.6256203 11.3489375,16.2386476 10.6709375,15.742928 C9.064875,14.5740695 6.10875,12.5369727 1.8024375,9.63244417 C1.1241875,9.18405707 0.5234375,8.67009926 0,8.09162531 L0,22.1539702 C0,22.9337469 0.2794375,23.6005583 0.838625,24.1555211 C1.3976875,24.71067 2.0699375,24.9881514 2.855125,24.9881514 L29.12175,24.9881514 C29.90675,24.9881514 30.5789375,24.71067 31.1380625,24.1555211 C31.697375,23.6003722 31.9766875,22.9338089 31.9766875,22.1539702 L31.9766875,8.09162531 C31.4650625,8.65812655 30.8704375,9.17208437 30.192,9.63244417 Z" fill-rule="nonzero"></path>
                    </g>
                </g>
            </g>
        </g>
    </g>
</svg>