<?xml version="1.0" encoding="UTF-8"?>
<svg width="30px" height="24px" viewBox="0 0 30 24" version="1.1" xmlns="http://www.w3.org/2000/svg" xmlns:xlink="http://www.w3.org/1999/xlink">
    <!-- Generator: Sketch 55.2 (78181) - https://sketchapp.com -->
    <title>medium-icon</title>
    <desc>Created with Sketch.</desc>
    <g id="Landing-Page-(Portfolio)" stroke="none" stroke-width="1" fill="none" fill-rule="evenodd">
        <g id="landing-page" transform="translate(-217.000000, -827.000000)" fill="#000000">
            <g id="social-media" transform="translate(80.000000, 827.000000)">
                <g id="medium-icon" transform="translate(137.000000, 0.000000)">
                    <g id="iconmonstr-medium-1">
                        <path d="M3.5575,4.85875 C3.595,4.49 3.45375,4.12625 3.17875,3.87875 L0.37875,0.50375 L0.37875,-4.4408921e-16 L9.07625,-4.4408921e-16 L15.79875,14.74375 L21.70875,-4.4408921e-16 L30,-4.4408921e-16 L30,0.50375 L27.605,2.8 C27.39875,2.9575 27.29625,3.21625 27.33875,3.4725 L27.33875,20.345 C27.29625,20.6 27.39875,20.85875 27.605,21.01625 L29.94375,23.3125 L29.94375,23.81625 L18.17875,23.81625 L18.17875,23.3125 L20.6025,20.96 C20.84,20.7225 20.84,20.6525 20.84,20.28875 L20.84,6.65125 L14.10375,23.76125 L13.19375,23.76125 L5.35,6.65125 L5.35,18.11875 C5.285,18.6 5.445,19.08625 5.78375,19.43375 L8.935,23.25625 L8.935,23.76125 L-6.21724894e-15,23.76125 L-6.21724894e-15,23.25625 L3.15125,19.43375 C3.48875,19.085 3.63875,18.59625 3.5575,18.11875 L3.5575,4.85875 L3.5575,4.85875 Z" id="Path"></path>
                    </g>
                </g>
            </g>
        </g>
    </g>
</svg>